<?xml version="1.0" encoding="UTF-8"?><svg xmlns="http://www.w3.org/2000/svg" xmlns:xlink="http://www.w3.org/1999/xlink" width="76px" height="38px" viewBox="0 0 38 38" version="1.1"><defs><filter id="alpha" filterUnits="objectBoundingBox" x="0%" y="0%" width="100%" height="100%"><feColorMatrix type="matrix" in="SourceGraphic" values="0 0 0 0 1 0 0 0 0 1 0 0 0 0 1 0 0 0 1 0"/></filter><mask id="mask0"><g filter="url(#alpha)"><rect x="0" y="0" width="38" height="38" style="fill:rgb(0%,0%,0%);fill-opacity:0.94902;stroke:none"/></g></mask><clipPath id="clip1"><rect x="0" y="0" width="38" height="38"/></clipPath><g id="surface18" clip-path="url(#clip1)"><path style="stroke:none;fill-rule:evenodd;fill:rgb(25.490198%,24.705882%,25.882354%);fill-opacity:1" d="M 17.257812 -0.0390625 L 20.671875 -0.0390625 C 27.324219 0.769531 32.332031 4.0625 35.699219 9.835938 C 36.9375 12.167969 37.691406 14.644531 37.960938 17.257812 L 37.960938 20.671875 C 37.15625 27.324219 33.863281 32.332031 28.09375 35.699219 C 25.757812 36.9375 23.28125 37.691406 20.671875 37.960938 L 17.257812 37.960938 C 10.601562 37.15625 5.59375 33.863281 2.226562 28.09375 C 0.988281 25.757812 0.234375 23.28125 -0.0390625 20.671875 L -0.0390625 17.257812 C 0.769531 10.601562 4.0625 5.59375 9.835938 2.226562 C 12.167969 0.988281 14.644531 0.234375 17.257812 -0.0390625 Z M 18.8125 1.148438 C 24.726562 1.304688 29.515625 3.679688 33.175781 8.273438 C 37.070312 13.828125 37.761719 19.765625 35.253906 26.085938 C 32.679688 31.53125 28.464844 34.957031 22.601562 36.367188 C 16.015625 37.519531 10.414062 35.703125 5.789062 30.914062 C 1.300781 25.597656 0.113281 19.613281 2.226562 12.953125 C 4.632812 6.90625 9 3.109375 15.328125 1.558594 C 16.492188 1.335938 17.652344 1.199219 18.8125 1.148438 Z M 18.890625 7.53125 C 18.960938 7.527344 19.023438 7.550781 19.074219 7.609375 C 21.550781 10.59375 24.039062 13.578125 26.535156 16.550781 L 22.820312 16.625 C 22.6875 16.664062 22.601562 16.75 22.5625 16.882812 C 22.523438 21.140625 22.511719 25.394531 22.523438 29.648438 L 15.398438 29.648438 C 15.414062 25.394531 15.398438 21.140625 15.363281 16.882812 C 15.328125 16.75 15.238281 16.664062 15.101562 16.625 L 11.390625 16.550781 C 13.90625 13.554688 16.402344 10.550781 18.886719 7.535156 Z M 18.890625 7.53125 "/></g><mask id="mask1"><g filter="url(#alpha)"><rect x="0" y="0" width="38" height="38" style="fill:rgb(0%,0%,0%);fill-opacity:0.980392;stroke:none"/></g></mask><clipPath id="clip2"><rect x="0" y="0" width="38" height="38"/></clipPath><g id="surface21" clip-path="url(#clip2)"><path style="stroke:none;fill-rule:evenodd;fill:rgb(25.098041%,24.705882%,25.490198%);fill-opacity:1" d="M 18.664062 5.898438 C 18.988281 5.851562 19.273438 5.925781 19.519531 6.125 C 22.503906 9.695312 25.472656 13.285156 28.425781 16.882812 C 28.476562 17.078125 28.476562 17.285156 28.425781 17.476562 C 28.390625 17.613281 28.300781 17.703125 28.164062 17.738281 C 26.683594 17.773438 25.199219 17.789062 23.710938 17.773438 C 23.726562 22.03125 23.710938 26.285156 23.675781 30.539062 C 23.640625 30.675781 23.550781 30.765625 23.414062 30.800781 C 20.445312 30.851562 17.476562 30.851562 14.507812 30.800781 C 14.375 30.765625 14.289062 30.675781 14.25 30.539062 C 14.210938 26.285156 14.199219 22.03125 14.210938 17.773438 C 12.726562 17.789062 11.242188 17.773438 9.757812 17.738281 C 9.625 17.703125 9.539062 17.613281 9.5 17.476562 C 9.449219 17.285156 9.449219 17.078125 9.5 16.882812 C 12.515625 13.191406 15.570312 9.527344 18.667969 5.898438 Z M 18.890625 7.53125 C 16.402344 10.550781 13.90625 13.554688 11.394531 16.550781 L 15.101562 16.625 C 15.238281 16.664062 15.328125 16.75 15.363281 16.882812 C 15.398438 21.140625 15.414062 25.394531 15.398438 29.648438 L 22.523438 29.648438 C 22.511719 25.394531 22.523438 21.140625 22.5625 16.882812 C 22.601562 16.75 22.6875 16.664062 22.820312 16.625 L 26.53125 16.550781 C 24.039062 13.578125 21.550781 10.59375 19.074219 7.605469 C 19.023438 7.550781 18.960938 7.527344 18.890625 7.53125 Z M 18.890625 7.53125 "/></g></defs><g id="surface11"><use xlink:href="#surface18" mask="url(#mask0)"/><use xlink:href="#surface21" mask="url(#mask1)"/></g></svg>