<svg xmlns="http://www.w3.org/2000/svg" data-name="Layer 1" fill="#00203F" viewBox="0 0 128 160" x="0px" y="0px"><path d="M63.05592,3.579C38.60431,4.044,19.542,26.248,20.3946,48.27169c1.263,32.79361,26.86195,62.38946,38.22985,73.97542a7.67056,7.67056,0,0,0,10.71543,0c11.66258-11.87061,38.293-42.69051,38.293-76.4805C107.63292,23.75243,87.58115,3.12353,63.05592,3.579ZM80.48626,59.1465a11.68492,11.68492,0,0,0,3.68552-.666s1.98,11.35256-5.31109,21.13821a2.67212,2.67212,0,0,1-4.82408-1.36183C73.51757,71.53951,71.47517,61.81769,64,61.81769s-9.51762,9.72182-10.0366,16.43916a2.67212,2.67212,0,0,1-4.82408,1.36183c-7.29106-9.78565-5.31115-21.13821-5.31115-21.13821a11.68516,11.68516,0,0,0,3.68551.666,2.6801,2.6801,0,0,0,1.71483-4.78776,24.876,24.876,0,0,1-5.54866-6.03834c-3.18895-4.93528-2.52148-12.4591-2.52148-12.4591a12.09,12.09,0,0,1,7.11945-9.64092c3.6799-1.63547,8.08114-.34042,11.28978,1.1509a10.52812,10.52812,0,0,0,8.86479,0c3.20858-1.49132,7.60988-2.78637,11.28972-1.1509a12.09,12.09,0,0,1,7.11951,9.64092s.66742,7.52382-2.52153,12.4591a24.875,24.875,0,0,1-5.5486,6.03834A2.68007,2.68007,0,0,0,80.48626,59.1465Z"/></svg>