<svg xmlns="http://www.w3.org/2000/svg" xmlns:xlink="http://www.w3.org/1999/xlink" version="1.1" x="0px" y="0px" viewBox="0 0 90 112.5" enable-background="new 0 0 90 90" xml:space="preserve"><path d="M48.75,8.644c-8.709-0.419-13.492-9.322-24.035-4.06c-11.669,5.824-11.669,16.25-11.669,17.193  c0,14.2,7.783,15.296,7.191,27.012c-1.451,28.755,10.422,38.119,17.056,36.834c8.978-1.738-8.855-32.092,9.166-32.092  S46,82.97,54.708,85.624c6.903,2.104,18.741-10.161,17.056-36.834c-0.74-11.708,7.191-12.812,7.191-27.012  c0-2.877,0.313-11.199-11.049-16.178s-12.239,16.067-29.002,9.623c0,0-1.533-0.196-2.183-1.218  C44.776,13.988,48.75,8.644,48.75,8.644z"/></svg>