<svg width="75" height="75" viewBox="0 0 75 75" fill="none" xmlns="http://www.w3.org/2000/svg">
<path d="M69.2621 8.39271C65.373 4.03852 60.0206 1.64075 54.1903 1.64075C49.6322 1.64075 44.7161 4.35268 41.1241 6.33414C39.8164 7.05597 38.0282 8.04283 37.4996 8.1078C36.9734 8.04394 35.1944 7.05965 33.8899 6.338C30.3071 4.35563 25.4002 1.64075 20.8099 1.64075C14.9794 1.64075 9.62678 4.03852 5.73749 8.39271C2.03759 12.5351 0 17.9876 0 23.7459C0 31.9719 2.95396 43.67 7.9017 55.0393C10.1029 60.0977 12.446 64.4686 14.6776 67.6797C17.3338 71.5016 19.6132 73.3592 21.6464 73.3592C22.5486 73.3592 24.2006 72.9766 25.1274 70.4131C26.0281 67.9222 26.8383 65.0631 27.6975 62.0303C29.9712 54.0048 32.8007 44.0162 37.3563 44.0162H37.6439C39.6694 44.0162 41.4824 45.751 43.1865 49.32C44.8746 52.8554 46.158 57.5565 47.4008 62.1086C48.2222 65.1179 48.9984 67.9598 49.87 70.4063C50.7781 72.9539 52.4115 73.3349 53.3054 73.3354C55.3285 73.3353 57.6057 71.4491 60.2676 67.5694C62.4934 64.3254 64.8415 59.911 67.058 54.8037C72.0309 43.3429 75 31.7327 75 23.7457C75 17.9875 72.9622 12.5349 69.2621 8.39271ZM52.7842 14.2977C52.7375 14.2945 48.0277 14.0691 43.7403 12.9337C41.8071 12.4219 39.5212 11.3934 39.5212 11.0883C39.5212 10.7912 42.0047 9.34515 42.6036 9.0146C45.9025 7.19474 50.4199 4.70237 54.1903 4.70237C65.2996 4.70237 71.9384 14.3849 71.9384 23.7459C71.9384 31.2219 68.9921 42.6557 64.2491 53.5848C62.1404 58.4444 59.8297 62.7958 57.743 65.8372C55.3353 69.3464 53.7773 70.3666 53.3054 70.2736C53.0157 70.2164 52.9797 70.011 52.7544 69.3782C51.9205 67.0386 51.1591 64.2501 50.3531 61.2978C49.0762 56.6212 47.7564 51.785 45.9492 48.0004C43.6853 43.259 40.9686 40.9542 37.6439 40.9542H37.3563C34.1536 40.9542 31.4997 43.2406 29.2433 47.9439C27.4422 51.6979 26.0743 56.5262 24.7518 61.1957C23.9088 64.1708 23.1128 66.9814 22.2484 69.3718C22.0575 69.8995 21.9986 70.244 21.6464 70.2974C21.3703 70.3393 20.1911 70.2479 17.1917 65.9321C15.1035 62.9276 12.8012 58.6251 10.709 53.8174C5.99184 42.9781 3.06163 31.4555 3.06163 23.7457C3.06163 14.3847 9.7004 4.70219 20.8099 4.70219C23.6976 4.70219 27.4924 6.01794 30.961 8.22191C31.4697 8.54528 32.186 9.09577 32.8788 9.6284C33.1552 9.84097 33.4276 10.0502 33.6812 10.2411C34.4943 10.8501 35.5931 11.6465 36.8833 12.406C37.4334 12.7307 38.1178 13.1349 38.8448 13.4433C41.6249 14.6234 44.5726 15.2218 47.6059 15.2218C50.6966 15.2218 52.7754 14.672 52.7958 14.6656C52.7958 14.6656 53.2609 14.5426 53.2462 14.4217C53.2314 14.3008 52.7842 14.2977 52.7842 14.2977Z" fill="#00203F"/>
</svg>
