<svg width="70" height="70" viewBox="0 0 120 103" fill="none" xmlns="http://www.w3.org/2000/svg">
<path d="M119.894 37.846C120.717 51.992 116.761 66.884 107.849 78.055C102.79 84.1769 96.522 89.1888 89.437 92.777C81.785 96.828 73.095 100.977 64.45 102.151C60.221 102.721 55.867 101.872 51.734 100.993C47.3086 100.111 42.966 98.8554 38.753 97.239C31.2326 94.4041 24.462 89.8833 18.961 84.024C13.4105 77.8573 8.85755 70.8613 5.467 63.289C1.853 55.454 -0.799999 47.105 0.220001 38.39C0.232335 38.2576 0.271821 38.1291 0.335996 38.0126C0.400171 37.8961 0.487659 37.7941 0.593001 37.713C0.511001 34.63 0.682002 31.554 0.893002 28.713C1.493 20.441 3.887 10.131 11.134 5.13097C11.2834 5.02412 11.4623 4.96645 11.646 4.96597C11.659 4.92197 11.665 4.87097 11.678 4.82097C11.7495 4.51093 11.8534 4.20927 11.988 3.92097C12.1121 3.66488 12.2496 3.41554 12.4 3.17397C12.5459 2.93462 12.7133 2.70903 12.9 2.49997C13 2.39197 13.1 2.29097 13.2 2.18997L13.555 1.92997C14.0239 1.61422 14.5869 1.46912 15.15 1.51897C15.3228 1.52983 15.4944 1.55526 15.663 1.59497C16.3256 1.33375 17.0015 1.10777 17.688 0.917972C18.41 0.708972 19.238 0.493972 20.213 0.290972C20.7563 0.176356 21.306 0.093879 21.859 0.0439716C21.9728 0.034822 22.0872 0.034822 22.201 0.0439716L22.401 0.0569721C22.4614 0.0704354 22.5192 0.0937471 22.572 0.125972L22.872 0.258972L23.118 0.379972C23.4313 0.561114 23.7244 0.775339 23.992 1.01897C24.5003 1.49296 24.9405 2.03512 25.3 2.62997H25.376C31.535 3.26897 35.433 8.42997 40.769 11.016C47.851 14.446 56.718 16.94 64.649 15.428C71.504 14.117 77.301 9.82797 82.915 5.91397C85.688 3.97797 89.58 1.38297 92.815 3.28797C93.1072 3.04981 93.4182 2.83577 93.745 2.64797C94.4966 2.21925 95.3488 1.99867 96.214 2.00897C97.0062 2.03349 97.774 2.28895 98.423 2.74397C98.6852 2.92871 98.9251 3.14314 99.138 3.38297C99.2849 3.23217 99.4617 3.11365 99.657 3.03497C99.9667 2.9279 100.301 2.91227 100.619 2.98997C101.15 3.1322 101.639 3.40162 102.043 3.77497C102.445 4.1291 102.81 4.52349 103.132 4.95197C103.693 5.70302 104.156 6.52183 104.512 7.38897C104.64 7.33758 104.78 7.32105 104.916 7.34108C105.053 7.3611 105.182 7.41696 105.29 7.50297C110.183 10.991 113.006 16.611 116.19 21.554C116.332 21.6688 116.436 21.823 116.49 21.997C116.73 22.776 116.952 23.548 117.154 24.32C118.772 28.6568 119.697 33.2214 119.894 37.846ZM118.337 42.656C118.253 42.6441 118.17 42.623 118.09 42.593C117.4 47.624 116.172 52.903 112.128 56.308C112.104 56.3268 112.079 56.3438 112.052 56.359C111.352 65.928 104.495 75.201 96.513 80.081C87.1 85.847 76.925 92.6 65.785 87.708C59.272 92.613 49.892 90.701 42.685 88.36C33.4834 85.1739 25.3574 79.4756 19.227 71.91C19.1079 71.8976 18.992 71.8637 18.885 71.81C13.207 68.817 7.285 62.987 7.499 56.11C7.5019 56.0652 7.50825 56.0207 7.518 55.977C7.43957 55.9391 7.36713 55.8899 7.303 55.831C5.43398 54.1386 3.94726 52.0673 2.942 49.755C2.872 49.755 2.796 49.755 2.726 49.749C3.95931 55.1657 5.92046 60.3905 8.556 65.281C12.41 72.737 16.923 79.851 23.183 85.554C29.911 91.68 37.983 95.535 46.753 97.854C51.247 99.044 56.215 100.423 60.886 100.43C65.671 100.436 70.114 99.082 74.538 97.373C90.266 91.303 105.032 82.879 112.438 67.03C115.995 59.3745 117.999 51.0905 118.337 42.656ZM116.47 40.256C117.017 35.0216 116.611 29.7313 115.27 24.642C115.086 24.218 114.89 23.794 114.694 23.376C113.549 23.7428 112.43 24.1868 111.345 24.705C112.679 29.6782 113.021 34.8655 112.352 39.971C111.965 43.629 111.795 47.237 109.415 50.218C108.7 51.118 107.946 51.991 107.257 52.908C108.655 53.2364 109.985 53.8063 111.187 54.592C115.065 51 115.989 45.299 116.47 40.256ZM113.87 21.686C113.841 21.5888 113.832 21.4866 113.845 21.386C111.326 17.329 108.921 12.842 105.206 9.81597C105.237 10.032 105.269 10.253 105.282 10.487C105.334 11.2121 105.257 11.9407 105.054 12.639C105.668 13.2194 106.149 13.9255 106.465 14.709C106.645 15.1468 106.785 15.5999 106.883 16.063C108.524 18.1154 109.828 20.4167 110.744 22.88C111.742 22.39 112.824 22.1 113.868 21.687L113.87 21.686ZM110.339 41.11C111.13 33.71 111.003 26.072 107.139 19.686C107.077 20.8002 106.841 21.8979 106.439 22.939C106.547 23.117 106.654 23.306 106.768 23.496C106.957 23.8754 107.122 24.2665 107.262 24.667C107.89 26.4995 107.965 28.4763 107.477 30.351C107.202 31.4014 106.683 32.3725 105.964 33.186C106.72 34.7477 107.101 36.4641 107.078 38.199C107.082 39.3052 106.849 40.3995 106.394 41.408C105.879 42.5553 105.001 43.5008 103.894 44.098C104.094 49.218 101.882 63.111 95.261 58.535C94.8895 59.2577 94.4682 59.9538 94 60.618C92.626 62.587 89.734 65.418 87.082 65.264C86.2123 65.1996 85.3796 64.8858 84.6837 64.3601C83.9879 63.8343 83.4585 63.119 83.159 62.3C81.381 66.617 76.323 70.345 72.032 69.908C70.3495 69.7856 68.7462 69.1456 67.4419 68.0759C66.1376 67.0061 65.1962 65.559 64.747 63.933C60.76 71.2 48.823 72.6 46.354 62.428C46.2357 61.9378 46.1448 61.4413 46.082 60.941C44.582 63.327 41.974 64.973 39.151 63.422C37.7205 62.5903 36.502 61.4387 35.591 60.0573C34.68 58.676 34.1012 57.1024 33.9 55.46L33.786 55.669C33.1585 57.0194 32.1426 58.152 30.868 58.922C29.6333 59.5352 28.2245 59.7026 26.8805 59.3956C25.5366 59.0887 24.3401 58.3264 23.494 57.238C21.45 54.365 21.064 50.352 21.4 46.922C21.431 46.605 21.47 46.245 21.514 45.871C21.1656 45.8428 20.8215 45.7757 20.488 45.671C19.6859 45.4108 18.9717 44.933 18.425 44.291C17.5373 43.1811 16.9606 41.8551 16.754 40.449C16.3941 38.2479 16.5062 35.9954 17.083 33.841C16.2309 33.3253 15.537 32.5853 15.077 31.702C14.6548 30.8508 14.397 29.9277 14.317 28.981C14.2102 27.4529 14.4526 25.9205 15.026 24.5C14.1132 23.9011 13.3308 23.1239 12.726 22.215C12.1413 21.354 11.6893 20.4102 11.385 19.415C11.0818 18.505 10.9317 17.5511 10.941 16.592C10.9461 16.135 10.993 15.6794 11.081 15.231C11.1784 14.7962 11.3247 14.3739 11.517 13.972C11.6985 13.5831 11.9261 13.2175 12.195 12.883C12.4537 12.5871 12.7374 12.3141 13.043 12.067C12.7371 11.4981 12.4728 10.9079 12.252 10.301C12.473 10.915 10.714 13.472 10.46 14.137C9.8989 15.535 9.62152 17.0307 9.644 18.537C9.751 20.98 9.574 23.518 9.808 25.949C9.87452 26.7407 10.0319 27.5222 10.277 28.278C10.5455 28.926 10.9441 29.512 11.448 30C12.0542 30.59 12.5953 31.2434 13.062 31.949C13.3168 32.3631 13.495 32.8197 13.588 33.297C13.6487 33.7309 13.6634 34.17 13.632 34.607C13.5568 35.3362 13.4426 36.0609 13.29 36.778C13.1751 37.3658 13.1242 37.9642 13.138 38.563L13.189 38.949L13.207 39.139L13.271 39.348C13.359 39.626 13.442 39.898 13.531 40.164C13.707 40.702 13.955 41.221 14.164 41.721C15.119 43.715 16.176 45.436 16.91 47.044C17.088 47.455 17.258 47.844 17.423 48.221C17.55 48.614 17.676 48.993 17.796 49.354C18.0084 50.0192 18.1653 50.7008 18.265 51.392C18.3878 52.396 18.4069 53.41 18.322 54.418C18.208 55.943 18.069 56.589 17.942 56.589C17.815 56.589 17.689 55.924 17.581 54.418C17.5255 53.4632 17.4029 52.5135 17.214 51.576C17.0718 50.9509 16.8836 50.3373 16.651 49.74C16.518 49.411 16.379 49.07 16.239 48.715C16.069 48.373 15.891 48.015 15.701 47.639C14.936 46.145 13.828 44.506 12.746 42.417C12.499 41.873 12.22 41.329 11.999 40.717C11.891 40.407 11.783 40.091 11.676 39.774L11.6 39.534L11.556 39.255C11.524 39.065 11.499 38.875 11.467 38.686C11.4948 37.2827 11.6326 35.8837 11.879 34.502C11.8988 34.2081 11.886 33.913 11.841 33.622C11.7874 33.3586 11.6857 33.1074 11.541 32.881C11.1195 32.2964 10.6448 31.7521 10.123 31.255C9.43317 30.601 8.89136 29.8068 8.534 28.926C8.23267 28.0449 8.0373 27.1312 7.952 26.204C7.85768 25.0351 7.85133 23.8608 7.933 22.691C7.27591 25.5765 6.81486 28.5032 6.553 31.451C5.889 38.894 6.225 48.8 14.153 52.281C14.3421 52.3522 14.4954 52.4953 14.5795 52.679C14.6636 52.8628 14.6717 53.0723 14.602 53.262C14.6122 53.3141 14.6185 53.3669 14.621 53.42C14.792 58.433 18.571 65.344 23.921 66.471C23.921 66.389 22.744 62.547 22.662 62.23C22.377 61.211 22.193 60.344 22.003 59.642C21.649 58.23 21.427 57.442 21.579 57.376C21.7 57.319 22.179 58.003 22.788 59.369C23.105 60.047 23.415 60.901 23.795 61.857C24.1735 62.9192 24.6618 63.9391 25.252 64.9C25.417 65.141 25.588 65.388 25.758 65.641C25.987 65.9 26.221 66.16 26.458 66.432L26.61 66.603L26.635 66.622L26.685 66.666L26.785 66.748C26.918 66.863 27.057 66.976 27.196 67.096L28.038 67.805C28.323 68.046 28.614 68.293 28.905 68.546C29.228 68.767 29.551 68.995 29.88 69.223C30.545 69.673 31.19 70.192 31.918 70.623C32.646 71.054 33.374 71.503 34.127 71.958C34.927 72.382 35.747 72.819 36.583 73.258C38.2401 74.0963 39.9992 74.7155 41.816 75.1C43.716 75.549 45.652 75.878 47.569 76.4C48.025 76.5333 48.4747 76.6666 48.918 76.8C49.3876 76.934 49.8499 77.0926 50.303 77.275C51.196 77.635 52.003 78.034 52.784 78.408C54.1629 79.1509 55.6247 79.7286 57.139 80.129C57.2947 80.1697 57.4536 80.1972 57.614 80.211L57.836 80.249L58.114 80.262L58.392 80.376L58.412 80.446L58.449 80.37L58.57 80.307C58.721 80.287 58.88 80.243 59.032 80.23C59.616 80.1126 60.1776 79.9033 60.696 79.61C61.6189 79.0353 62.4156 78.2794 63.038 77.388C63.5367 76.6833 63.9871 75.9456 64.386 75.18C64.734 74.521 65 74.009 65.186 73.667C65.199 73.578 65.218 73.528 65.249 73.521C65.255 73.521 65.262 73.528 65.268 73.534C65.408 73.306 65.503 73.186 65.568 73.205C65.633 73.224 65.644 73.534 65.536 74.059C65.5471 74.0813 65.5558 74.1048 65.562 74.129C65.756 74.7766 66.0344 75.3959 66.39 75.971C66.9991 76.9747 67.8848 77.7813 68.941 78.294C70.5473 79.0409 72.3118 79.3842 74.081 79.294C75.2147 79.2507 76.3418 79.1 77.447 78.844C78.0608 78.6905 78.6654 78.5025 79.258 78.281C79.5578 78.1755 79.8512 78.053 80.137 77.914C80.4355 77.7872 80.7181 77.6257 80.979 77.433C82.175 76.576 83.241 75.5507 84.144 74.389C84.6633 73.749 85.2013 73.0926 85.758 72.42C85.891 72.256 86.024 72.091 86.158 71.933C86.292 71.775 86.405 71.604 86.531 71.433C86.778 71.085 87.018 70.717 87.272 70.333C87.766 69.555 88.2763 68.7576 88.803 67.941C89.3611 67.0496 89.9838 66.2003 90.666 65.4C90.8671 65.1732 91.0847 64.9617 91.317 64.767C91.5844 64.5568 91.8753 64.3786 92.184 64.236C92.7663 63.9838 93.387 63.8316 94.02 63.786C95.0412 63.8027 96.0597 63.6748 97.045 63.406C97.4685 63.2366 97.8555 62.9874 98.185 62.672C98.552 62.272 98.95 61.919 99.311 61.457C100.052 60.584 100.773 59.628 101.469 58.628C102.165 57.628 102.849 56.577 103.469 55.482C103.621 55.204 103.769 54.925 103.932 54.647C104.095 54.369 104.204 54.083 104.343 53.799C104.512 53.4716 104.654 53.1308 104.767 52.78C104.525 51.9832 104.445 51.1461 104.532 50.318C104.564 49.9938 104.619 49.6724 104.697 49.356C104.79 48.9886 104.949 48.641 105.165 48.33C105.312 48.1505 105.446 47.9603 105.565 47.761C105.667 47.5927 105.755 47.4169 105.83 47.235C106.425 45.564 106.786 44.115 107.102 43.035C107.31 42.246 107.585 41.4765 107.925 40.735C108.153 40.273 108.325 40.096 108.451 40.127C108.577 40.158 108.651 40.406 108.651 40.913C108.651 41.42 108.563 42.185 108.43 43.313C108.238 44.8518 107.919 46.372 107.475 47.858C107.38 48.1333 107.264 48.4008 107.127 48.658C106.986 48.905 106.832 49.1437 106.664 49.373C106.577 49.5102 106.517 49.663 106.487 49.823C106.44 50.0631 106.409 50.3059 106.392 50.55C106.368 50.7007 106.359 50.8535 106.367 51.006C107.346 49.9721 108.206 48.8316 108.93 47.606C109.957 45.612 110.1 43.314 110.337 41.111L110.339 41.11ZM110.168 56.187C109.083 55.4361 107.851 54.9248 106.554 54.687C106.418 54.6695 106.287 54.6264 106.167 54.56C106.022 54.814 105.883 55.079 105.75 55.345C104.782 57.389 104.016 59.522 103.085 61.58C99.699 69.086 93.649 74.643 86.857 79.111C83.7135 81.3912 80.0282 82.8095 76.167 83.225C72.8 83.491 69.42 83.295 66.046 83.403V85.77C66.097 85.789 66.154 85.802 66.211 85.827C76.832 90.84 86.686 83.808 95.554 78.44C103 73.941 109.57 65.093 110.166 56.188L110.168 56.187ZM104.908 31.458C105.664 30.2577 106.019 28.8481 105.921 27.433C105.883 26.3493 105.629 25.2841 105.174 24.3C105.033 24.019 104.872 23.7483 104.693 23.49C104.377 23.0256 103.983 22.6196 103.528 22.29C103.232 22.0559 102.882 21.9011 102.51 21.84C102.465 21.834 102.338 21.904 102.136 22.062C101.909 22.2525 101.666 22.4219 101.408 22.568C100.895 22.8262 100.323 22.9442 99.75 22.91C99.522 22.897 99.307 22.884 99.098 22.866C98.8837 22.827 98.6722 22.7739 98.465 22.707C98.642 23.119 98.765 23.48 98.896 23.79C99.0356 24.1584 99.1938 24.5195 99.37 24.872C99.509 25.125 99.611 25.315 99.693 25.441C99.775 25.567 99.781 25.67 99.75 25.726C99.719 25.782 99.623 25.796 99.459 25.745C99.2049 25.6578 98.9734 25.5154 98.781 25.328C98.4622 25.0133 98.1837 24.6603 97.952 24.277C97.652 23.828 97.364 23.271 96.99 22.701C96.8109 22.4152 96.601 22.1499 96.364 21.91C96.1421 21.7041 95.8689 21.5618 95.573 21.498C95.4039 21.4796 95.2331 21.4863 95.066 21.518C94.971 21.53 94.876 21.549 94.775 21.562C94.675 21.6 94.566 21.638 94.458 21.682C94.0306 21.8115 93.6416 22.044 93.325 22.359C92.6151 23.2594 92.2696 24.3937 92.357 25.537C92.3569 26.2598 92.4442 26.9801 92.617 27.682C92.7754 28.3939 93.0332 29.08 93.383 29.72C93.8904 29.5618 94.4251 29.5106 94.9533 29.5694C95.4816 29.6283 95.9919 29.796 96.452 30.062C96.528 30.113 96.591 30.176 96.661 30.233C96.861 30.264 97.061 30.29 97.281 30.328C97.9695 30.4725 98.6764 30.5086 99.376 30.435C99.7996 30.394 100.216 30.3006 100.617 30.157C100.841 30.0686 101.061 29.9685 101.275 29.857C101.436 29.7758 101.604 29.7063 101.775 29.649C102.021 29.5654 102.283 29.5394 102.541 29.573C102.677 29.6018 102.81 29.6395 102.941 29.686C103.048 29.737 103.156 29.794 103.27 29.857C103.436 29.9684 103.595 30.091 103.744 30.224C104.01 30.4644 104.264 30.718 104.504 30.984C104.618 31.117 104.744 31.25 104.865 31.395C104.874 31.422 104.893 31.44 104.906 31.459L104.908 31.458ZM105.313 18.737C105.362 17.5933 105.204 16.4501 104.845 15.363C104.602 14.5701 104.098 13.883 103.414 13.414C102.809 13.1014 102.149 12.9079 101.471 12.844C100.946 12.774 100.478 12.705 100.06 12.629C100.358 12.9822 100.684 13.3103 101.035 13.61C101.233 13.77 101.445 13.9119 101.668 14.034C101.829 14.1095 101.993 14.1763 102.161 14.234C102.44 14.317 102.592 14.405 102.598 14.494C102.604 14.583 102.477 14.671 102.129 14.754C101.906 14.794 101.678 14.7981 101.453 14.766C101.124 14.7064 100.806 14.5975 100.509 14.443C99.7269 13.9628 98.9934 13.4075 98.319 12.785C97.9448 12.4685 97.4923 12.2585 97.009 12.177C96.4356 12.143 95.8644 12.2749 95.364 12.557L95.307 12.583C94.0718 13.3515 93.1461 14.5299 92.692 15.912C92.3513 16.7399 92.1669 17.6238 92.148 18.519C92.1207 18.8881 92.1772 19.2585 92.3131 19.6028C92.449 19.947 92.6609 20.2561 92.933 20.507C93.2539 20.3199 93.5987 20.1772 93.958 20.083C94.11 20.038 94.258 19.994 94.408 19.956L94.908 19.899C95.2377 19.8687 95.5701 19.8858 95.895 19.95C96.4865 20.1079 97.0177 20.4383 97.421 20.899C97.446 20.925 97.465 20.956 97.49 20.988C97.674 21.076 97.863 21.178 98.06 21.279C98.557 21.5544 99.1305 21.6598 99.693 21.579H99.75C100.079 21.5615 100.398 21.4636 100.68 21.294C100.848 21.1781 101.007 21.049 101.155 20.908C101.438 20.598 101.811 20.3835 102.221 20.2939C102.631 20.2044 103.059 20.2442 103.446 20.408C103.784 20.5343 104.111 20.691 104.421 20.876C104.61 21.003 104.794 21.142 104.978 21.288C105.184 20.4531 105.296 19.5978 105.311 18.738L105.313 18.737ZM105.213 38.155C105.246 36.6162 104.921 35.0907 104.264 33.699C104.125 33.4019 103.966 33.1142 103.789 32.838C103.701 32.711 103.618 32.585 103.536 32.458C103.436 32.332 103.336 32.212 103.236 32.085C103.036 31.845 102.831 31.61 102.648 31.433C102.567 31.3549 102.482 31.2812 102.394 31.212L102.325 31.161C102.312 31.155 102.306 31.148 102.293 31.148C102.344 31.041 101.622 31.401 101.072 31.56C99.898 31.8701 98.6618 31.8545 97.496 31.515C97.61 31.825 97.696 32.115 97.755 32.357C97.8309 32.7784 98.0068 33.1756 98.268 33.515C98.4421 33.6817 98.6455 33.815 98.868 33.908C99.033 33.977 99.115 34.053 99.115 34.117C99.115 34.181 99.033 34.243 98.824 34.288C98.6928 34.3185 98.5568 34.3226 98.424 34.3C98.215 34.2818 98.0122 34.2194 97.829 34.117C97.3295 33.7778 96.9522 33.287 96.753 32.717C96.487 32.135 96.228 31.457 95.728 31.204C95.3435 31.0675 94.9352 31.0112 94.5282 31.0384C94.1211 31.0655 93.7239 31.1757 93.361 31.362C92.8545 31.5709 92.3812 31.8525 91.956 32.198C91.7356 32.3721 91.5433 32.5792 91.386 32.812C91.297 32.932 91.208 33.052 91.12 33.179C91.05 33.312 90.981 33.451 90.911 33.584C90.6261 34.2269 90.4853 34.9243 90.4985 35.6274C90.5116 36.3305 90.6783 37.0221 90.987 37.654C91.2963 38.3803 91.787 39.015 92.4122 39.4971C93.0373 39.9792 93.7759 40.2925 94.557 40.407C98.399 38.451 102.386 38.274 103.557 42.046C104.099 41.5563 104.528 40.9549 104.814 40.2833C105.1 39.6116 105.238 38.8858 105.216 38.156L105.213 38.155ZM103.321 11.717C103.454 10.7419 103.368 9.74933 103.068 8.81197C102.766 7.79984 102.316 6.83805 101.732 5.95797C101.501 5.60616 101.238 5.27583 100.948 4.97097C100.748 4.76014 100.515 4.58435 100.257 4.45097C100.216 4.4261 100.169 4.41466 100.121 4.41824C100.073 4.42183 100.028 4.44027 99.991 4.47097C99.979 4.48297 99.973 4.49597 99.96 4.50197C100.03 4.62897 100.099 4.75497 100.169 4.87497C100.315 5.20497 100.454 5.52164 100.587 5.82497L100.643 5.95797C100.656 5.97747 100.667 5.99865 100.675 6.02097L100.631 6.07197L100.479 6.27197C100.379 6.40497 100.279 6.53197 100.179 6.65797C100.113 6.73658 100.057 6.82409 100.015 6.91797C99.97 6.98797 99.932 7.05697 99.895 7.11797C99.7728 7.37325 99.6934 7.64691 99.66 7.92797C99.647 7.99197 99.641 8.05497 99.628 8.11897C99.635 8.17497 99.635 8.23897 99.641 8.29597C99.6405 8.40792 99.6468 8.5198 99.66 8.63097C99.6928 8.82105 99.7437 9.00757 99.812 9.18797C99.882 9.34597 99.939 9.48797 99.989 9.60597C100.055 9.69552 100.112 9.79092 100.16 9.89097C100.243 10.061 100.26 10.169 100.223 10.22C100.186 10.271 100.084 10.264 99.901 10.176C99.7834 10.1157 99.6692 10.0489 99.559 9.97597C99.4208 9.84602 99.2899 9.70847 99.167 9.56397C99.0126 9.35285 98.885 9.12344 98.787 8.88097C98.7345 8.73198 98.6921 8.57964 98.66 8.42497C98.641 8.34297 98.622 8.26097 98.603 8.17197C98.603 8.08397 98.597 7.99497 98.597 7.89997C98.5764 7.4855 98.6344 7.07086 98.768 6.67797C98.812 6.57797 98.856 6.46897 98.901 6.35597C98.945 6.26097 99.008 6.10297 99.021 6.08997L99.091 5.96297C99.097 5.94997 99.104 5.94397 99.11 5.93197L98.622 5.20997C98.508 5.04497 98.407 4.88697 98.312 4.74197C98.28 4.69697 98.255 4.66597 98.223 4.62097C98.0282 4.40177 97.8025 4.21211 97.553 4.05797C97.1033 3.79557 96.5881 3.6669 96.0679 3.6871C95.5477 3.70729 95.044 3.8755 94.616 4.17197C94.3565 4.32739 94.1127 4.50756 93.888 4.70997C93.8408 4.85756 93.7611 4.99271 93.6549 5.10552C93.5486 5.21834 93.4185 5.30596 93.274 5.36197C92.7511 6.00905 92.3696 6.75848 92.154 7.56197C91.9387 8.31378 91.9455 9.11181 92.1735 9.85985C92.4015 10.6079 92.841 11.274 93.439 11.778C93.8084 11.4671 94.225 11.217 94.673 11.037C94.66 11.043 94.654 11.049 94.641 11.056L94.698 11.031C95.5004 10.6458 96.402 10.5173 97.28 10.663C97.8976 10.8009 98.4703 11.0926 98.945 11.511C99.521 11.524 100.345 11.499 101.585 11.505C102.171 11.5024 102.756 11.5739 103.324 11.718L103.321 11.717ZM96.021 56.757C100.901 60.307 102.179 46.895 102.009 44.13C101.909 42.503 101.217 41.61 100.198 41.256C99.945 45.142 97.888 48.465 95.508 51.456C95.6865 51.6912 95.8454 51.9407 95.983 52.202C96.2959 52.9197 96.4605 53.6933 96.4668 54.4762C96.4732 55.2591 96.3212 56.0353 96.02 56.758L96.021 56.757ZM100.1 63.4C99.891 63.621 99.67 63.837 99.467 64.052C98.9598 64.5263 98.3669 64.8996 97.72 65.152C96.5756 65.4884 95.3866 65.6486 94.194 65.627C93.7617 65.6537 93.3366 65.7499 92.935 65.912C92.7668 65.9889 92.6078 66.0845 92.461 66.197C92.2999 66.3303 92.1494 66.4761 92.011 66.633C91.3857 67.3536 90.8138 68.119 90.3 68.923C89.762 69.733 89.243 70.523 88.737 71.289C88.478 71.682 88.218 72.068 87.937 72.448C87.798 72.638 87.659 72.828 87.501 73.011C87.343 73.194 87.201 73.359 87.058 73.536C86.494 74.201 85.95 74.836 85.419 75.467C84.3931 76.7343 83.1858 77.8433 81.836 78.758C81.5109 78.9802 81.1629 79.1669 80.798 79.315C80.4585 79.4709 80.1098 79.6061 79.754 79.72C79.104 79.939 78.4427 80.1229 77.773 80.271C76.5627 80.5179 75.3302 80.6389 74.095 80.632C72.1144 80.6591 70.1606 80.1726 68.424 79.22C67.2473 78.5588 66.3083 77.5443 65.74 76.32C65.5478 75.9032 65.3997 75.4675 65.298 75.02C65.253 75.172 65.203 75.33 65.152 75.494C64.8686 76.374 64.4953 77.2225 64.038 78.026C63.4122 79.1502 62.5455 80.1221 61.5 80.872C60.8479 81.3055 60.1265 81.6245 59.367 81.815C59.167 81.847 58.967 81.885 58.76 81.915L58.601 81.941L58.525 81.953L58.386 81.96L58.108 81.966L57.823 81.972L57.488 81.947C57.2649 81.9359 57.0428 81.9105 56.823 81.871C55.1353 81.5202 53.4996 80.9542 51.956 80.187C51.164 79.833 50.367 79.472 49.563 79.175C49.1636 79.0215 48.756 78.8902 48.342 78.782C47.898 78.656 47.442 78.529 46.994 78.403C45.253 77.966 43.322 77.643 41.329 77.181C39.3309 76.7497 37.3999 76.0514 35.588 75.105C34.759 74.643 33.949 74.213 33.151 73.751C32.366 73.251 31.594 72.751 30.841 72.269C30.088 71.787 29.43 71.225 28.752 70.725C28.417 70.472 28.088 70.219 27.765 69.972C27.465 69.687 27.165 69.415 26.873 69.143C26.581 68.871 26.297 68.605 26.018 68.343C25.942 68.267 25.86 68.191 25.784 68.122C27.561 70.2618 29.4718 72.2869 31.505 74.185C34.9846 76.973 38.9028 79.1641 43.1 80.669C46.6687 82.2301 50.4039 83.3792 54.233 84.094C56.2079 84.4547 58.2334 84.4354 60.201 84.037C61.1043 83.8787 61.9646 83.5337 62.727 83.024C63.347 82.518 63.543 81.771 64.252 81.448C64.3135 81.4199 64.377 81.3965 64.442 81.378C65.5569 81.2976 66.6772 81.3358 67.784 81.492C70.265 81.486 72.746 81.6 75.227 81.404C79.0748 81.0835 82.7636 79.7249 85.9 77.473C91.4 73.764 96.855 69.3 100.1 63.4ZM94.083 50.219C96.197 47.574 98.109 44.574 98.311 41.124C94.444 41.649 88.88 46.099 88.393 49.631C90.387 49.53 92.469 49.359 94.083 50.219ZM91.716 60.428C93.127 58.821 95.147 55.783 94.425 53.492C94.2672 52.9506 93.9467 52.4709 93.507 52.118C93.482 52.143 93.456 52.162 93.425 52.188C91.2945 53.5723 89.0477 54.7688 86.71 55.764C85.962 56.049 85.21 56.302 84.456 56.564C83.779 56.792 83.856 56.764 84.001 57.552C84.279 59.115 84.431 62.852 86.469 63.286C88.444 63.713 90.539 61.77 91.716 60.428ZM92.374 41.719C92.0018 41.5373 91.6498 41.3167 91.324 41.061C90.4378 40.3663 89.7393 39.4613 89.292 38.428C88.8793 37.5472 88.6695 36.585 88.6782 35.6123C88.6868 34.6396 88.9137 33.6813 89.342 32.808C89.45 32.608 89.558 32.421 89.659 32.238C89.792 32.073 89.918 31.909 90.045 31.744C90.2939 31.4192 90.5879 31.1317 90.918 30.89C91.1378 30.723 91.3683 30.5707 91.608 30.434C91.2296 29.6986 90.9467 28.918 90.766 28.111C90.573 27.2641 90.4797 26.3975 90.488 25.529C90.4891 24.7146 90.6149 23.9052 90.861 23.129C91.027 22.658 91.2503 22.2093 91.526 21.793C91.1374 21.4407 90.8323 21.0061 90.633 20.521C90.3715 19.8898 90.2444 19.211 90.26 18.528C90.2867 17.3886 90.5318 16.265 90.982 15.218C91.288 14.4966 91.6719 13.8109 92.127 13.173C91.3219 12.4386 90.7204 11.5085 90.381 10.473C90.0604 9.36854 90.0493 8.19727 90.349 7.08697C90.5899 6.23625 90.9752 5.43324 91.488 4.71297C89.058 3.68197 85.722 6.22597 83.874 7.54897C81.539 9.21997 79.165 10.84 76.716 12.34C71.304 15.64 65.962 17.726 59.545 17.568C53.4138 17.4716 47.3681 16.1144 41.784 13.581C38.8303 12.2171 36.0422 10.5201 33.474 8.52297C31.24 6.81497 29.018 5.20097 26.252 4.66897C26.278 4.75097 26.316 4.82697 26.341 4.90897C26.6159 5.74438 26.7753 6.61341 26.815 7.49197C26.8736 8.33469 26.7529 9.18027 26.461 9.97297C26.6884 10.3069 26.889 10.6584 27.061 11.024C27.4368 11.8018 27.7381 12.6134 27.961 13.448C28.2105 14.3479 28.4009 15.2632 28.531 16.188C28.6426 16.9833 28.7037 17.7849 28.714 18.588C28.803 18.632 28.892 18.67 28.974 18.715C29.7097 19.1937 30.3053 19.859 30.7 20.643C31.1085 21.421 31.4003 22.255 31.566 23.118C31.7571 24.0521 31.8244 25.0073 31.766 25.959C31.721 26.6923 31.5638 27.4143 31.3 28.1C31.344 28.131 31.382 28.151 31.42 28.182C33.1727 29.6394 34.4534 31.5842 35.1 33.77C35.5096 35.0135 35.7169 36.3147 35.714 37.624C35.703 38.3626 35.5858 39.0958 35.366 39.801C35.1995 40.3267 34.954 40.824 34.638 41.276C36.632 43.301 37.847 46.124 37.238 48.676C41.738 46.455 49.004 48.961 48.181 54.31C49.5439 53.1893 51.18 52.4508 52.922 52.17C56.986 51.354 62.036 52.126 64.916 55.303C64.9744 55.2037 65.0521 55.1172 65.1445 55.0485C65.2369 54.9798 65.3421 54.9303 65.454 54.903C67.808 50.137 75.208 49.871 79.865 52.764C80.65 50.758 83.708 50.017 86.48 49.751C86.7 47.011 89.267 43.884 92.374 41.719ZM91.039 51.4C90.033 51.369 88.969 51.508 88.076 51.546C85.792 51.654 81.368 51.66 81.676 54.211C82.0191 54.5602 82.3304 54.9394 82.606 55.344C82.6782 55.2828 82.7566 55.2295 82.84 55.185C84.1 54.534 85.524 54.274 86.802 53.66C88.254 52.966 89.659 52.2 91.039 51.4ZM73.652 67.922C77.31 67.074 83.273 62.46 81.741 57.979C81.6309 57.6738 81.4934 57.3793 81.33 57.099C81.2029 57.1682 81.0624 57.2095 80.918 57.22C76.018 57.567 71.152 58.34 66.228 58.182C65.722 62.985 67.6 69.321 73.652 67.922ZM79.893 55.4C76.108 52.109 68.342 51.28 66.873 56.293C71.235 56.372 75.551 55.757 79.893 55.4ZM64.146 86.581V84.34C58.627 88.252 49.12 85.1 43.639 82.916C39.563 81.296 35.107 79.536 31.657 76.777C28.468 74.22 25.967 70.998 23.151 68.061C22.1969 68.7918 21.3131 69.61 20.511 70.505C25.885 77.1 33.423 83.043 41.474 85.936C48.133 88.328 57.816 90.992 64.146 86.581ZM49.316 55.922C54.133 56.327 58.962 57.327 63.785 56.928C61.45 54.03 56.911 53.175 53.424 54C51.9157 54.2878 50.5035 54.9485 49.316 55.922ZM56.791 67.9C58.8761 67.4497 60.7438 66.2979 62.0823 64.6369C63.4208 62.9759 64.1492 60.9062 64.146 58.773C58.772 59.216 53.462 58.052 48.094 57.735C47.6849 59.1066 47.716 60.572 48.183 61.925C49.329 65.966 52.183 69.011 56.791 67.9ZM46.152 54.682C47.452 50.447 41.632 48.561 38.164 50.232C41.006 51.219 44.449 52.555 46.152 54.682ZM38.962 61.036C39.5492 61.509 40.2616 61.8005 41.012 61.8748C41.7623 61.9492 42.5181 61.8031 43.1866 61.4544C43.8552 61.1058 44.4077 60.5698 44.7763 59.912C45.1449 59.2542 45.3137 58.5032 45.262 57.751C45.249 54.106 39.876 52.669 36.477 51.625C36.0107 52.2932 35.7541 53.0853 35.74 53.9C35.7002 55.256 35.9697 56.6032 36.5279 57.8396C37.0862 59.076 37.9186 60.1691 38.962 61.036ZM35.347 48.27C35.5872 47.6342 35.6628 46.9481 35.5666 46.2753C35.4704 45.6025 35.2057 44.965 34.797 44.422C33.597 42.722 31.018 40.358 28.62 40.377C31.341 41.991 33.7 45.687 35.347 48.27ZM33.816 37.586C33.8241 36.4824 33.6573 35.3844 33.322 34.333C32.8052 32.4967 31.7728 30.8472 30.347 29.58C30.0595 29.3406 29.7401 29.1424 29.398 28.991C29.2708 28.9283 29.1338 28.8878 28.993 28.871C28.8312 28.8547 28.6686 28.8483 28.506 28.852C27.7801 28.9203 27.0618 29.0541 26.36 29.252C25.936 29.352 25.525 29.46 25.119 29.561C25.853 30.2239 26.4102 31.0595 26.74 31.992C26.976 32.6604 27.0875 33.3664 27.069 34.075C27.0601 34.3056 27.0391 34.5356 27.006 34.764C26.9674 34.9183 26.9207 35.0705 26.866 35.22C26.784 35.454 26.708 35.555 26.645 35.543C26.582 35.531 26.524 35.41 26.487 35.176C26.467 35.062 26.449 34.916 26.436 34.739C26.423 34.562 26.366 34.359 26.328 34.125C26.2155 33.5285 26.0238 32.9497 25.758 32.404C25.3756 31.6213 24.801 30.9483 24.088 30.448C23.6887 30.1836 23.234 30.0146 22.759 29.954C22.664 29.967 22.559 29.979 22.459 29.986C22.244 30.005 22.035 30.017 21.839 30.03C21.5905 30.1011 21.3544 30.2101 21.139 30.353C20.9978 30.4265 20.8698 30.5227 20.76 30.638C20.645 30.752 20.512 30.847 20.393 30.967C20.1574 31.2435 19.9374 31.533 19.734 31.834C19.646 31.98 19.557 32.134 19.475 32.296C19.297 32.996 19.175 33.315 19.063 33.321C18.975 33.581 18.892 33.846 18.823 34.121C18.3256 36.0784 18.2456 38.1186 18.588 40.109C18.7487 41.1797 19.1827 42.1908 19.848 43.045C20.0932 43.3351 20.3972 43.5699 20.7399 43.7336C21.0826 43.8974 21.4562 43.9865 21.836 43.995C22.26 42.121 23.082 40.267 24.804 39.748C25.0013 39.6938 25.2017 39.6513 25.404 39.621C27.778 37.786 30.778 38.336 33.183 40.033C33.604 39.2866 33.8223 38.4429 33.816 37.586ZM33.107 52.625C33.48 51.846 33.955 51.074 34.398 50.302C32.537 47.502 30.607 44.194 27.815 42.314C23.101 39.137 22.98 48.308 23.341 51.125C23.613 53.27 24.322 56.954 26.93 57.454C30.7 58.175 31.771 55.409 33.107 52.625ZM29.872 25.825C29.9291 25.0396 29.8823 24.2501 29.733 23.477C29.5903 22.222 28.9969 21.0614 28.063 20.211C27.9747 20.1716 27.8898 20.1251 27.809 20.072C27.709 20.059 27.626 20.04 27.524 20.021L27.164 20C27.031 20.012 26.898 20.018 26.771 20.031C26.2483 20.0898 25.7304 20.185 25.221 20.316C24.227 20.563 23.347 20.841 22.581 21.063C22.181 21.177 21.816 21.278 21.474 21.373C21.828 21.557 22.126 21.74 22.385 21.898C22.7091 22.1162 23.0498 22.3088 23.404 22.474C23.777 22.674 23.98 22.329 24.113 22.405C24.17 22.43 24.213 22.525 24.158 22.715C24.1106 22.8522 24.0192 22.97 23.898 23.05C23.7246 23.1657 23.518 23.2212 23.31 23.208C22.436 23.202 21.493 22.569 20.183 22.265C19.86 22.1733 19.5203 22.157 19.19 22.2173C18.8597 22.2776 18.5477 22.413 18.278 22.613C17.544 23.2667 16.999 24.1056 16.7 25.042C16.2499 26.2475 16.0727 27.5378 16.181 28.82C16.216 29.4284 16.3716 30.0238 16.639 30.5714C16.9063 31.1191 17.2799 31.6081 17.738 32.01C17.9074 31.6322 18.1063 31.2684 18.333 30.922C18.6078 30.5369 18.9084 30.1711 19.233 29.827C19.341 29.727 19.454 29.637 19.562 29.542C19.6687 29.4421 19.783 29.3509 19.904 29.269C20.0369 29.163 20.1815 29.0728 20.335 29C21.0945 28.5429 21.9885 28.3621 22.866 28.488C22.9257 28.4973 22.9848 28.51 23.043 28.526L23.151 28.507C23.4332 28.4646 23.7121 28.4031 23.986 28.323C24.575 28.165 25.221 27.944 25.942 27.728C26.7402 27.4641 27.5631 27.2819 28.398 27.184C28.657 27.1636 28.9173 27.1656 29.176 27.19C29.3121 27.2031 29.4473 27.2241 29.581 27.253C29.7443 26.7933 29.8423 26.3119 29.872 25.825ZM26.563 18.37C26.639 18.363 26.715 18.35 26.791 18.344C26.7485 16.8584 26.5382 15.3823 26.164 13.944C25.9783 13.2124 25.7283 12.4986 25.417 11.811C25.1754 11.2294 24.8346 10.6941 24.41 10.229C24.3266 10.1324 24.2308 10.0473 24.125 9.97597L23.986 9.85597L23.822 9.77297C23.714 9.72897 23.613 9.65297 23.506 9.61497C23.399 9.57697 23.284 9.55797 23.176 9.52597C22.7278 9.4429 22.2664 9.4648 21.828 9.58997C20.9762 9.85666 20.1568 10.2176 19.385 10.666C18.6033 11.119 17.7863 11.5083 16.942 11.83L17.094 11.906C17.4603 12.1007 17.8492 12.2495 18.252 12.349C18.4178 12.3924 18.5878 12.4179 18.759 12.425C18.9129 12.4288 19.0669 12.4224 19.22 12.406C19.5154 12.3603 19.8058 12.2862 20.087 12.185C20.632 11.985 21.113 11.785 21.499 11.678C22.284 11.451 22.67 11.533 22.689 11.647C22.72 11.792 22.423 11.947 21.803 12.347C21.486 12.556 21.103 12.828 20.524 13.147C20.1905 13.3346 19.8356 13.4813 19.467 13.584C19.2373 13.6429 19.0032 13.6831 18.767 13.704C18.5196 13.7188 18.2712 13.7081 18.026 13.672C17.4986 13.5982 16.9837 13.4536 16.495 13.242C16.0852 13.0417 15.6465 12.9067 15.195 12.842C14.607 12.785 13.531 13.642 13.101 14.697C12.9783 14.9821 12.8848 15.279 12.822 15.583C12.7699 15.918 12.7465 16.2569 12.752 16.596C12.7582 17.3612 12.891 18.1201 13.145 18.842C13.4094 19.6594 13.791 20.4342 14.278 21.142C14.7176 21.7945 15.2731 22.3609 15.917 22.813C16.3024 22.2192 16.8013 21.7074 17.385 21.307C17.8908 20.9708 18.4784 20.7783 19.085 20.75C19.3071 20.7407 19.5297 20.7511 19.75 20.781C20.35 20.528 21.136 20.205 22.13 19.788C22.877 19.488 23.744 19.129 24.795 18.794C25.3723 18.6067 25.9635 18.4643 26.563 18.37ZM24.892 8.41997C24.9243 8.13853 24.9346 7.85502 24.923 7.57197C24.8984 6.85622 24.777 6.14711 24.562 5.46397C24.2438 4.28428 23.6385 3.20173 22.8 2.31297C22.471 1.97797 21.946 1.65497 21.914 1.71297C21.465 1.72597 20.939 1.78897 20.471 1.84597C19.534 1.97297 18.699 2.11197 17.984 2.22597C17.793 2.25697 17.616 2.28897 17.445 2.31397C17.597 2.39697 17.745 2.47297 17.876 2.54197C18.268 2.74197 18.584 2.90997 18.832 3.03597C19.319 3.28897 19.541 3.43597 19.521 3.57397C19.502 3.69397 19.23 3.79597 18.629 3.75097C18.2458 3.71237 17.8667 3.64043 17.496 3.53597C17.04 3.42197 16.515 3.23597 15.945 3.09297C15.6737 3.0149 15.3922 2.97848 15.11 2.98497C14.8677 2.98766 14.6336 3.07265 14.446 3.22597C14.398 3.27368 14.3469 3.31811 14.293 3.35897L14.135 3.55897C14.0215 3.70836 13.9211 3.86729 13.835 4.03397C13.735 4.20497 13.658 4.41297 13.557 4.60997C13.5128 4.70291 13.4793 4.80052 13.457 4.90097C13.4206 5.00126 13.3951 5.1052 13.381 5.21097C13.178 7.34205 13.6691 9.48168 14.781 11.311C14.9562 11.3009 15.1319 11.3069 15.306 11.329C15.49 11.355 15.661 11.488 15.819 11.488C16.7292 10.7861 17.685 10.1454 18.68 9.56997C19.5019 8.94791 20.4075 8.44495 21.37 8.07597C22.0411 7.84689 22.7566 7.77839 23.459 7.87597C23.9683 7.95986 24.4556 8.1442 24.892 8.41997ZM18.792 69.573C19.5259 68.7469 20.3122 67.969 21.146 67.244C18.7515 65.841 16.735 63.8754 15.2714 61.5175C13.8077 59.1596 12.9409 56.4804 12.746 53.712C12.714 53.693 12.676 53.681 12.646 53.661C11.6204 54.4994 10.533 55.2592 9.393 55.934C9.40054 55.9927 9.40488 56.0518 9.406 56.111C9.22 61.884 14.024 66.77 18.79 69.574L18.792 69.573ZM11.068 8.39997C10.968 8.19997 10.868 8.00697 10.768 7.81097C5.043 12.832 3.144 22.206 2.752 29.371C2.289 37.738 1.758 48.093 8.436 54.295C9.2918 53.7881 10.1178 53.2325 10.91 52.631C4.948 48.384 4.01 39.801 4.53 32.871C5.06455 24.361 7.28704 16.0425 11.068 8.39997Z" fill="#01996D"/>
<path d="M94.7 11.029L94.643 11.054C94.656 11.047 94.662 11.041 94.675 11.035C94.6824 11.0302 94.6912 11.0281 94.7 11.029Z" fill="#01996D"/>
<path d="M88.513 16.7119C88.6775 17.3935 88.7498 18.0941 88.728 18.7949C88.697 19.4659 88.684 20.3069 88.596 21.2689C88.476 22.2189 88.367 23.3139 88.121 24.4969C87.6047 27.2823 86.8571 30.0198 85.886 32.6809C85.586 33.4279 85.311 34.2059 84.962 34.9719C84.811 35.3459 84.595 35.7379 84.387 36.1369C84.179 36.5359 83.931 36.8899 83.697 37.2699C82.6529 38.7836 81.3875 40.132 79.943 41.2699C78.5139 42.4043 76.9521 43.3607 75.292 44.1179C73.692 44.8839 72.051 45.3329 70.614 45.9179C69.139 46.4739 67.714 47.0379 66.329 47.4179C65.6533 47.6011 64.9661 47.7387 64.272 47.8299C63.937 47.8679 63.614 47.9249 63.285 47.9379H62.335C62.171 47.9379 62.051 47.9439 61.854 47.9309C61.709 47.9119 61.569 47.8999 61.424 47.8809C61.145 47.8489 60.867 47.8049 60.589 47.7469C60.038 47.6529 59.545 47.5319 59.076 47.4309C58.152 47.2099 57.361 47.0309 56.703 46.9189C56.0146 46.8541 55.3301 46.754 54.652 46.6189C55.3354 46.4297 56.0514 46.3888 56.752 46.4989C57.436 46.5559 58.259 46.6759 59.195 46.8409C59.663 46.9169 60.17 47.0119 60.683 47.0749C60.942 47.1129 61.208 47.1439 61.499 47.1629L61.929 47.2009L62.341 47.1819L63.227 47.1439C63.527 47.1249 63.841 47.0559 64.151 47.0119C64.8033 46.9058 65.4479 46.7575 66.081 46.5679C67.404 46.1629 68.781 45.5939 70.259 44.9989C71.752 44.3659 73.334 43.9159 74.848 43.1689C76.4265 42.4339 77.9133 41.5163 79.278 40.4349C80.6401 39.366 81.8364 38.1012 82.828 36.6819C83.2879 36.0084 83.6894 35.2968 84.028 34.5549C84.376 33.8149 84.655 33.0549 84.958 32.3339C85.9581 29.7339 86.7663 27.0641 87.376 24.3459C87.667 23.1879 87.82 22.1249 87.997 21.1939C88.142 20.2639 88.212 19.4599 88.307 18.7939C88.288 18.094 88.3573 17.3945 88.513 16.7119Z" fill="#01996D"/>
<path d="M87.247 67.979C87.273 68.011 87.216 68.087 87.077 68.214C86.8684 68.3903 86.6241 68.5196 86.361 68.593C85.9304 68.7163 85.4733 68.7121 85.045 68.581C84.6074 68.4416 84.2085 68.2019 83.88 67.881C82.079 69.4036 80.185 70.8126 78.209 72.1C76.9446 72.8982 75.5691 73.5048 74.127 73.9C72.9062 74.2407 71.614 74.23 70.399 73.869C69.5894 73.613 68.8593 73.1529 68.279 72.533C67.879 72.103 67.74 71.825 67.785 71.774C67.83 71.723 68.101 71.913 68.557 72.223C69.1718 72.6602 69.8667 72.9722 70.602 73.141C71.6912 73.3555 72.817 73.2901 73.874 72.951C75.2056 72.5236 76.4772 71.9282 77.658 71.179C80.026 69.73 82.013 68.097 83.697 67.014L84.038 66.793L84.247 67.109C84.4955 67.4856 84.8438 67.7858 85.253 67.976C85.5754 68.1179 85.9277 68.1787 86.279 68.153C86.5118 68.1311 86.7413 68.0824 86.963 68.008C87.121 67.96 87.222 67.948 87.247 67.979Z" fill="#01996D"/>
<path d="M86.3 43.453C86.439 43.479 86.515 43.77 86.458 44.238C86.3297 44.8317 86.0484 45.3816 85.642 45.833C85.2468 46.2725 84.7637 46.6241 84.224 46.865C83.819 47.036 83.534 47.055 83.452 46.934C83.37 46.813 83.522 46.561 83.8 46.245C84.078 45.929 84.452 45.545 84.844 45.124C85.236 44.703 85.521 44.283 85.749 43.966C85.977 43.649 86.146 43.428 86.3 43.453Z" fill="#01996D"/>
<path d="M81.709 48.042C81.741 48.061 81.716 48.156 81.633 48.314C81.5303 48.5637 81.3751 48.7885 81.178 48.973C80.8769 49.2926 80.5068 49.5392 80.096 49.694C79.5584 49.8895 78.9899 49.986 78.418 49.979C77.005 49.9169 75.6016 49.716 74.228 49.379C72.716 49.108 71.028 48.779 69.557 49.474C68.051 50.202 66.779 51.481 65.032 51.987C64.832 52.025 64.646 52.063 64.462 52.107L64.323 52.133L64.253 52.069C64.126 52.082 64.177 52.025 64.177 52.006C64.177 51.987 64.177 52 64.171 52H64.158L64.139 52.076L64.101 52.114L63.791 52.12C63.591 52.107 63.38 52.114 63.191 52.089C63.001 52.044 62.811 52.006 62.627 51.962C61.9858 51.7834 61.3615 51.5492 60.761 51.262C60.222 51.028 59.742 50.819 59.311 50.674C58.881 50.503 58.511 50.446 58.204 50.345C57.545 50.256 57.184 50.18 57.184 50.104C57.184 50.028 57.552 49.971 58.216 49.927C58.6394 49.9548 59.0605 50.0119 59.476 50.098C60.0059 50.2224 60.5279 50.3787 61.039 50.566C62.2068 51.1459 63.5378 51.309 64.811 51.028C65.5181 50.7531 66.1867 50.3877 66.8 49.941C67.5331 49.4051 68.3053 48.9248 69.11 48.504C69.338 48.409 69.572 48.327 69.799 48.238L69.971 48.182L70.015 48.162L70.11 48.143L70.192 48.131L70.521 48.074C70.7519 48.0315 70.9862 48.0104 71.221 48.011C71.4572 47.9964 71.6941 47.9984 71.93 48.017C72.7756 48.0777 73.6144 48.2115 74.437 48.417C75.7509 48.784 77.0898 49.0551 78.443 49.228C79.3072 49.3473 80.1853 49.1467 80.912 48.664C81.1137 48.5282 81.3004 48.3713 81.469 48.196C81.589 48.08 81.678 48.023 81.709 48.042Z" fill="#01996D"/>
<path d="M72.848 38.706C72.931 38.82 72.456 39.301 71.576 39.947C70.3988 40.7536 69.1024 41.3708 67.734 41.776C66.3478 42.1661 64.9032 42.3056 63.468 42.188C62.405 42.055 61.768 41.852 61.768 41.713C61.774 41.555 62.452 41.498 63.503 41.434C64.8323 41.3206 66.1492 41.0921 67.439 40.751C70.443 39.858 72.659 38.421 72.848 38.706Z" fill="#01996D"/>
<path d="M58.924 72.41C58.962 72.435 58.766 72.935 58.044 73.593C57.5949 73.9937 57.0572 74.2823 56.475 74.435C55.6985 74.6212 54.8886 74.6171 54.114 74.423C52.1995 73.8543 50.4147 72.9167 48.86 71.663C47.968 71.017 47.06 70.309 46.12 69.606C45.645 69.258 45.164 68.906 44.671 68.6C44.1944 68.2823 43.6615 68.0586 43.101 67.941C41.841 67.587 40.531 67.479 39.233 67.15C37.9559 66.8415 36.7671 66.2427 35.759 65.4C35.559 65.2 35.354 64.995 35.152 64.8L34.852 64.5L34.706 64.355C34.617 64.247 34.606 64.228 34.548 64.155C34.2044 63.7258 33.8973 63.2685 33.63 62.788C33.445 62.3952 33.1848 62.0426 32.864 61.75L32.764 61.655L32.637 61.604L32.391 61.484C32.207 61.44 32.03 61.402 31.853 61.364C31.2749 61.451 30.7173 61.6418 30.207 61.927C29.7674 62.1418 29.3153 62.3299 28.853 62.49C28.023 62.75 27.605 62.636 27.593 62.59C27.568 62.502 28.055 62.464 28.707 62.135C29.049 61.957 29.46 61.723 29.947 61.435C30.188 61.29 30.467 61.144 30.758 60.986C30.916 60.916 31.087 60.853 31.258 60.786C31.4567 60.7282 31.6597 60.6861 31.865 60.66H31.9C32.128 60.691 32.368 60.723 32.609 60.767C32.729 60.818 32.856 60.867 32.982 60.919L33.166 60.995L33.337 61.122C33.7583 61.4568 34.1091 61.8718 34.369 62.343C34.6263 62.7764 34.9226 63.1854 35.254 63.565C35.286 63.603 35.354 63.679 35.354 63.685L35.506 63.831L35.806 64.115C36.006 64.315 36.217 64.501 36.426 64.704C37.3306 65.3909 38.3704 65.8782 39.477 66.134C40.66 66.419 42.008 66.527 43.369 66.9C44.0299 67.0498 44.6584 67.3178 45.224 67.691C45.768 68.033 46.261 68.4 46.742 68.767C47.679 69.495 48.584 70.204 49.442 70.875C50.8837 72.0921 52.528 73.0463 54.3 73.694C54.9631 73.8985 55.6633 73.9529 56.35 73.853C56.8666 73.7588 57.358 73.5583 57.793 73.264C58.525 72.764 58.848 72.346 58.924 72.41Z" fill="#01996D"/>
<path d="M55.443 43.928C54.9127 44.0791 54.3598 44.1346 53.81 44.092C52.3056 44.0773 50.8088 43.8758 49.354 43.492C47.1903 42.8742 45.1541 41.8756 43.341 40.543C41.1911 38.839 39.3682 36.7589 37.961 34.404C35.2463 30.2971 33.1222 25.8291 31.651 21.131C31.2078 19.7047 30.8841 18.244 30.683 16.764C30.5626 16.228 30.5345 15.6754 30.6 15.13C30.789 15.086 31.131 17.43 32.365 20.89C34.0222 25.4337 36.1994 29.7705 38.853 33.814C40.2003 36.0761 41.9253 38.0905 43.953 39.77C45.6519 41.0677 47.5503 42.0809 49.574 42.77C53.082 43.865 55.443 43.713 55.443 43.928Z" fill="#01996D"/>
<path d="M51.962 51.048C51.968 51.087 51.905 51.125 51.772 51.175C51.5748 51.2431 51.3665 51.2733 51.158 51.264C50.3834 51.2103 49.6526 50.8852 49.094 50.346C48.3239 49.6142 47.6012 48.8343 46.93 48.011C46.74 47.802 46.53 47.599 46.33 47.403L46.03 47.143C45.91 47.061 45.783 46.979 45.663 46.896C45.391 46.764 45.131 46.605 44.846 46.491C44.5581 46.3701 44.2621 46.2699 43.96 46.191C42.4517 45.8849 40.9287 45.6566 39.397 45.507L39.017 45.437L38.998 45.083C38.9671 44.402 38.8801 43.7247 38.738 43.058C38.6319 42.5628 38.4371 42.0908 38.163 41.665C37.9825 41.3863 37.7606 41.1368 37.505 40.925C37.314 40.76 37.226 40.652 37.251 40.608C37.276 40.564 37.416 40.589 37.651 40.672C38.0109 40.8084 38.3339 41.0272 38.594 41.311C38.9955 41.7509 39.2998 42.2705 39.487 42.836C39.6702 43.4143 39.804 44.0071 39.887 44.608C41.3546 44.6609 42.8142 44.8474 44.248 45.165C44.5965 45.2563 44.9372 45.375 45.267 45.52C45.596 45.659 45.9 45.843 46.21 46.007C46.4 46.127 46.482 46.207 46.628 46.298C46.761 46.425 46.9 46.545 47.033 46.659C47.267 46.899 47.482 47.134 47.678 47.368C48.451 48.317 49.033 49.184 49.622 49.798C50.0425 50.297 50.598 50.664 51.222 50.855C51.3977 50.9072 51.5778 50.9433 51.76 50.963C51.88 50.985 51.956 51.011 51.962 51.048Z" fill="#01996D"/>
</svg>
